<?xml version="1.0" standalone="no"?><!DOCTYPE svg PUBLIC "-//W3C//DTD SVG 1.1//EN" "http://www.w3.org/Graphics/SVG/1.1/DTD/svg11.dtd"><svg t="1546219429302" class="icon" style="" viewBox="0 0 1024 1024" version="1.1" xmlns="http://www.w3.org/2000/svg" p-id="2145" xmlns:xlink="http://www.w3.org/1999/xlink" width="200" height="200"><defs><style type="text/css"></style></defs><path d="M509.09381 927.674141 178.161702 927.674141c-6.563486 0-12.71151-0.980327-18.299785-4.749164-7.68196-5.16872-11.731182-12.715603-12.571317-21.793352-0.279363-2.514263-0.140193-5.16872-0.140193-7.823176 0-215.265762 0-430.531524 0.140193-645.797285 0-4.889357-1.254573-8.382924-4.888334-12.012591-22.072715-22.632463-11.036357-63.141062 19.418258-71.942519 13.967106-4.049223 28.497031-5.028527 42.883693-7.40362 40.232306-6.423293 80.461543-12.571317 120.834043-18.85851 44.141336-6.843872 88.423889-13.690814 132.566248-20.534685 42.186821-6.563486 84.513836-12.850679 126.70168-19.834744 26.821879-4.472871 49.310056 11.872399 53.78395 35.20071 2.929726 15.505136-1.399883 29.055756-12.57541 40.232306-2.094708 2.094708-3.210112 4.049223-3.210112 7.123234 0 55.31891 0.140193 110.636796 0 165.955706 0 3.90903 1.115404 5.307889 5.16872 5.16872 11.45182-0.280386 22.208814 3.768837 33.104979 6.423293 64.816215 15.785521 129.636522 31.710212 194.452737 47.635927 17.879206 4.332678 30.730908 14.389732 35.759435 32.410154 5.16872 18.299785-0.280386 33.80492-14.666024 45.956681-3.63376 3.074012-4.889357 6.007831-4.889357 10.476609 0.140193 133.545552 0.140193 267.091104 0 400.64075 0 8.238638-0.839111 16.200984-6.287193 22.908756-5.867638 7.262404-13.411451 10.755971-22.768563 10.755971l-99.04069 0C665.547095 927.674141 587.320453 927.674141 509.09381 927.674141L509.09381 927.674141zM566.506405 530.806321l0-331.346547 0-5.03262c0.140193-3.069919-1.254573-3.910053-4.328585-3.490497-23.468504 3.76986-47.076178 7.263427-70.544683 10.897188-44.421722 6.983041-88.983637 13.966083-133.405359 20.814048-49.594535 7.682983-99.184977 15.505136-148.775418 23.047926-4.468778 0.699941-6.003737 2.375094-6.003737 6.983041 0.140193 204.090235 0.140193 408.18354 0.140193 612.273774 0 6.423293 0 6.423293 6.2831 6.423293l125.583207 0c6.288217 0 6.288217 0 6.288217-6.423293L341.743338 739.78489c0-6.14393 0.13917-6.2831 6.007831-6.2831l74.173326 0c6.288217 0 6.288217 0 6.288217 6.423293l0 125.166721c0 6.284123 0 6.284123 6.2831 6.284123l125.167744 0 1.814322 0c3.493567 0.279363 5.16872-0.975211 4.888334-4.749164-0.13917-1.534959 0-3.074012 0-4.608971C566.506405 751.661382 566.506405 641.163755 566.506405 530.806321L566.506405 530.806321zM623.083981 658.344043l0 206.747761c0 6.284123 0.1361 6.424316 6.424316 6.424316l57.272401 0c5.868661 0 6.007831-0.140193 6.148024-6.284123L692.928722 807.954479c0-6.842849 0.140193-7.123234 6.843872-7.123234l39.393195 0c5.727445 0 6.007831 0.280386 6.007831 5.868661l0 58.252729c0 6.563486 0 6.563486 6.703679 6.563486l56.856939 0c6.703679 0 6.703679 0 6.703679-6.843872L815.437917 495.327272c0-6.847965 0-6.847965-6.703679-8.242731-59.511395-13.411451-119.15889-26.821879-178.667216-40.23333-6.846942-1.534959-6.846942-1.534959-6.846942 5.449106C623.083981 520.749268 623.083981 589.618798 623.083981 658.344043L623.083981 658.344043zM623.083981 658.344043" p-id="2146" fill="#ffffff"></path><path d="M385.045563 352.839047c-12.571317 0-25.003464-0.13917-37.57478 0.140193-4.192485 0.140193-6.007831-1.119497-6.007831-5.588275 0.140193-24.586978 0.140193-49.170886 0-73.757864 0-3.90903 1.255597-5.448082 5.308913-5.448082 25.421996 0.13917 50.708915 0.13917 76.131935 0 3.76986 0 5.448082 1.119497 5.448082 5.16872-0.13917 24.727171-0.13917 49.450249 0 74.17742 0 3.913123-1.118474 5.448082-5.167696 5.307889C410.472676 352.699877 397.757073 352.839047 385.045563 352.839047L385.045563 352.839047zM385.045563 352.839047" p-id="2147" fill="#ffffff"></path><path d="M384.90537 419.334507c12.57541 0 25.007557 0.140193 37.578874-0.140193 4.189416 0 5.867638 1.115404 5.867638 5.588275-0.13917 24.582885-0.13917 49.170886 0 73.753771 0 4.193509-1.39886 5.588275-5.588275 5.448082-25.282826-0.13917-50.708915-0.13917-75.991742 0-4.053316 0-5.308913-1.534959-5.308913-5.448082 0.140193-24.723078 0.140193-49.450249 0-74.173326 0-4.053316 1.394766-5.308913 5.308913-5.308913C359.622544 419.4747 372.193861 419.334507 384.90537 419.334507L384.90537 419.334507zM384.90537 419.334507" p-id="2148" fill="#ffffff"></path><path d="M385.324926 655.274124c-12.850679 0-25.702382-0.140193-38.553061 0-4.053316 0-5.308913-1.39886-5.308913-5.307889 0.140193-24.727171 0.140193-49.451272 0-74.178443 0-3.632737 1.119497-5.167696 5.028527-5.167696 25.702382 0.13917 51.265594 0.13917 76.972069 0 3.629667 0 4.749164 1.394766 4.749164 4.888334-0.140193 25.006534-0.140193 50.15019 0 75.152631 0 3.773953-1.539053 4.753257-4.889357 4.753257C410.752038 655.133931 398.036435 655.274124 385.324926 655.274124L385.324926 655.274124zM385.324926 655.274124" p-id="2149" fill="#ffffff"></path><path d="M718.631104 569.220213c-6.983041 0-14.110369-0.135076-21.093411 0-3.493567 0.140193-4.608971-1.394766-4.608971-4.607948 0-13.690814 0.140193-27.517727 0-41.208541 0-3.493567 1.394766-4.888334 4.888334-4.888334 14.250562 0.13917 28.356838 0.13917 42.6074 0 3.489474 0 4.889357 1.534959 4.889357 5.028527-0.140193 13.690814-0.140193 27.516704 0 41.207517 0 3.354398-1.25969 4.608971-4.608971 4.468778C733.162052 569.085136 725.894532 569.220213 718.631104 569.220213L718.631104 569.220213zM718.631104 569.220213" p-id="2150" fill="#ffffff"></path><path d="M718.491934 658.903791c-6.843872 0-13.690814-0.140193-20.674878 0-3.493567 0.140193-5.028527-1.254573-5.028527-4.749164l0-41.207517c0-3.493567 1.534959-4.888334 5.028527-4.749164 14.250562 0.140193 28.356838 0.140193 42.6074 0 3.350304 0 4.749164 1.115404 4.749164 4.468778-0.140193 13.831007-0.140193 27.798113 0 41.628096 0 3.354398-1.25969 4.608971-4.608971 4.608971C733.162052 658.763598 725.894532 658.903791 718.491934 658.903791L718.491934 658.903791zM718.491934 658.903791" p-id="2151" fill="#ffffff"></path><path d="M719.471239 697.877431c6.983041 0 14.106276 0.140193 21.093411 0 3.349281-0.140193 4.608971 1.258667 4.608971 4.613064-0.140193 13.68672-0.140193 27.516704 0 41.207517 0 3.493567-1.25969 5.028527-4.749164 5.028527-14.250562-0.13917-28.356838-0.13917-42.6074 0-3.493567 0-4.888334-1.394766-4.888334-4.888334 0.140193-13.690814 0.140193-27.520797 0-41.207517 0-3.63376 1.675152-4.753257 5.028527-4.613064C705.080483 698.017624 712.343911 697.877431 719.471239 697.877431L719.471239 697.877431zM719.471239 697.877431" p-id="2152" fill="#ffffff"></path></svg>